<?xml version="1.0" standalone="no"?>
<!DOCTYPE svg PUBLIC "-//W3C//DTD SVG 20010904//EN"
 "http://www.w3.org/TR/2001/REC-SVG-20010904/DTD/svg10.dtd">
<svg version="1.0" xmlns="http://www.w3.org/2000/svg"
 width="107.000000pt" height="100.000000pt" viewBox="0 0 107.000000 100.000000"
 preserveAspectRatio="xMidYMid meet">
<metadata>
Created by potrace 1.10, written by Peter Selinger 2001-2011
</metadata>
<g transform="translate(0.000000,100.000000) scale(0.100000,-0.100000)"
fill="#000000" stroke="none">
<path d="M330 902 c-118 -53 -221 -101 -227 -105 -10 -6 -13 -72 -13 -275 l0
-267 231 -103 231 -103 229 103 229 102 0 271 0 271 -217 97 c-120 53 -225 98
-233 101 -8 3 -112 -39 -230 -92z m430 -27 c107 -48 196 -89 197 -89 5 -4
-403 -181 -412 -179 -18 2 -390 173 -390 178 0 3 85 43 189 90 104 46 191 87
194 90 7 7 -14 16 222 -90z m-420 -212 l195 -89 3 -243 c1 -133 -1 -241 -6
-239 -4 1 -99 44 -210 93 l-202 90 0 244 c0 191 3 242 13 238 6 -3 100 -45
207 -94z m640 -145 l0 -243 -207 -92 c-113 -51 -207 -92 -207 -90 -1 1 0 110
2 243 l3 241 202 91 c111 50 203 91 205 91 1 1 2 -108 2 -241z"/>
<path d="M565 918 c-2 -7 -14 -66 -25 -132 -15 -84 -18 -122 -11 -129 7 -7 14
-7 20 -2 12 14 54 252 46 264 -9 15 -25 14 -30 -1z"/>
<path d="M624 888 c-7 -11 26 -46 63 -66 15 -9 13 -14 -15 -52 -31 -42 -33
-60 -9 -60 11 0 87 91 87 104 0 7 -105 86 -113 86 -3 0 -9 -5 -13 -12z"/>
<path d="M407 818 c-41 -59 -40 -62 34 -114 31 -22 42 -25 52 -15 12 12 0 27
-57 67 -18 12 -17 14 12 55 17 23 29 46 26 51 -12 19 -32 5 -67 -44z"/>
<path d="M273 585 c-37 -16 -43 -43 -15 -68 17 -16 20 -15 42 8 27 29 80 34
104 9 22 -21 20 -28 -15 -69 -34 -38 -56 -47 -39 -15 13 23 -3 34 -42 28 -18
-2 -24 -12 -31 -48 -11 -59 -2 -146 18 -176 9 -14 25 -24 39 -24 34 0 87 40
108 82 17 32 18 41 6 65 -7 16 -23 29 -36 31 -30 5 -27 14 9 32 68 33 76 104
16 140 -38 24 -116 26 -164 5z m102 -209 c15 -22 15 -28 1 -61 -20 -47 -40
-41 -44 14 -5 72 14 92 43 47z"/>
<path d="M712 601 c-52 -25 -62 -46 -34 -74 l21 -21 25 27 c32 34 72 44 105
26 20 -11 27 -24 29 -56 3 -34 -2 -47 -29 -77 -43 -49 -53 -46 -45 14 7 50 6
50 -21 50 -51 0 -53 -7 -43 -110 14 -130 17 -140 40 -140 17 0 20 7 20 54 0
50 2 54 29 66 56 23 111 104 111 165 0 13 -13 39 -28 56 -24 27 -37 33 -83 36
-39 3 -66 -2 -97 -16z"/>
</g>
</svg>
