<svg xmlns="http://www.w3.org/2000/svg" xmlns:xlink="http://www.w3.org/1999/xlink" width="111" zoomAndPan="magnify" viewBox="0 0 83.25 79.499996" height="106" preserveAspectRatio="xMidYMid meet" version="1.0"><defs><g/><clipPath id="17ddc29e11"><path d="M 9.757812 0.105469 L 79.628906 0.105469 L 79.628906 72.207031 L 9.757812 72.207031 Z M 9.757812 0.105469 " clip-rule="nonzero"/></clipPath><clipPath id="fd561cec9a"><path d="M 30 9 L 41 9 L 41 25 L 30 25 Z M 30 9 " clip-rule="nonzero"/></clipPath><clipPath id="288d3b962a"><path d="M 29.722656 6.816406 L 60.820312 4.085938 L 62.773438 26.300781 L 31.671875 29.03125 Z M 29.722656 6.816406 " clip-rule="nonzero"/></clipPath><clipPath id="875fadd5e8"><path d="M 29.722656 6.816406 L 60.820312 4.085938 L 62.773438 26.300781 L 31.671875 29.03125 Z M 29.722656 6.816406 " clip-rule="nonzero"/></clipPath><clipPath id="5f4c9dda3d"><path d="M 51 8 L 62 8 L 62 24 L 51 24 Z M 51 8 " clip-rule="nonzero"/></clipPath><clipPath id="fedf4528c1"><path d="M 29.722656 6.816406 L 60.820312 4.085938 L 62.773438 26.300781 L 31.671875 29.03125 Z M 29.722656 6.816406 " clip-rule="nonzero"/></clipPath><clipPath id="46d867d2bf"><path d="M 29.722656 6.816406 L 60.820312 4.085938 L 62.773438 26.300781 L 31.671875 29.03125 Z M 29.722656 6.816406 " clip-rule="nonzero"/></clipPath><clipPath id="bfe9393a0f"><path d="M 42 5 L 51 5 L 51 28 L 42 28 Z M 42 5 " clip-rule="nonzero"/></clipPath><clipPath id="14e4d1ccd0"><path d="M 29.722656 6.816406 L 60.820312 4.085938 L 62.773438 26.300781 L 31.671875 29.03125 Z M 29.722656 6.816406 " clip-rule="nonzero"/></clipPath><clipPath id="87bcf59d7e"><path d="M 29.722656 6.816406 L 60.820312 4.085938 L 62.773438 26.300781 L 31.671875 29.03125 Z M 29.722656 6.816406 " clip-rule="nonzero"/></clipPath></defs><g clip-path="url(#17ddc29e11)"><path fill="#ffffff" d="M 78.640625 15.359375 L 45.015625 0.285156 C 44.699219 0.144531 44.382812 0.144531 44.070312 0.285156 L 10.445312 15.359375 C 10.234375 15.449219 10.070312 15.59375 9.945312 15.785156 C 9.820312 15.976562 9.757812 16.1875 9.757812 16.414062 L 9.757812 55.839844 C 9.757812 56.066406 9.820312 56.277344 9.945312 56.46875 C 10.070312 56.660156 10.234375 56.800781 10.445312 56.894531 L 44.070312 71.96875 C 44.382812 72.109375 44.699219 72.109375 45.015625 71.96875 L 78.640625 56.894531 C 78.851562 56.800781 79.015625 56.660156 79.140625 56.46875 C 79.265625 56.277344 79.328125 56.066406 79.328125 55.839844 L 79.328125 16.414062 C 79.328125 16.1875 79.265625 15.976562 79.140625 15.785156 C 79.015625 15.59375 78.851562 15.449219 78.640625 15.359375 Z M 43.382812 69.121094 L 12.078125 55.085938 L 12.078125 18.285156 L 43.382812 32.320312 Z M 44.542969 30.296875 L 13.664062 16.453125 L 44.542969 2.613281 L 75.421875 16.453125 Z M 77.007812 55.085938 L 45.703125 69.121094 L 45.703125 32.320312 L 77.007812 18.285156 Z M 77.007812 55.085938 " fill-opacity="1" fill-rule="nonzero"/></g><g fill="#ffffff" fill-opacity="1"><g transform="translate(14.54356, 54.538793)"><g><path d="M 16.125 -10.1875 C 17.1875 -10.257812 18.109375 -10.128906 18.890625 -9.796875 C 19.628906 -9.472656 20.238281 -9.03125 20.71875 -8.46875 C 21.164062 -7.90625 21.488281 -7.253906 21.6875 -6.515625 C 21.851562 -5.773438 21.882812 -5.015625 21.78125 -4.234375 C 21.675781 -3.460938 21.347656 -2.515625 20.796875 -1.390625 C 20.234375 -0.273438 19.484375 0.769531 18.546875 1.75 C 17.609375 2.738281 16.488281 3.546875 15.1875 4.171875 C 13.84375 4.773438 12.351562 4.96875 10.71875 4.75 C 9.664062 4.613281 8.867188 4.0625 8.328125 3.09375 C 7.753906 2.144531 7.367188 0.992188 7.171875 -0.359375 C 6.960938 -1.734375 6.894531 -3.21875 6.96875 -4.8125 C 7 -6.40625 7.085938 -7.894531 7.234375 -9.28125 C 7.390625 -10.644531 7.5625 -11.828125 7.75 -12.828125 C 7.90625 -13.828125 8.015625 -14.425781 8.078125 -14.625 C 8.078125 -14.675781 8.09375 -14.71875 8.125 -14.75 C 8.945312 -15.226562 9.695312 -15.492188 10.375 -15.546875 C 11.050781 -15.597656 11.660156 -15.5625 12.203125 -15.4375 C 12.703125 -15.3125 13.128906 -15.140625 13.484375 -14.921875 C 13.804688 -14.703125 14.015625 -14.546875 14.109375 -14.453125 C 14.140625 -14.410156 14.148438 -14.359375 14.140625 -14.296875 C 13.734375 -13.160156 13.378906 -12.117188 13.078125 -11.171875 C 14.609375 -11.960938 15.894531 -12.882812 16.9375 -13.9375 C 17.9375 -14.96875 18.578125 -15.976562 18.859375 -16.96875 C 19.128906 -17.945312 18.984375 -18.8125 18.421875 -19.5625 C 17.804688 -20.3125 16.640625 -20.800781 14.921875 -21.03125 C 13.835938 -21.175781 12.898438 -21.09375 12.109375 -20.78125 C 11.285156 -20.476562 10.578125 -20.101562 9.984375 -19.65625 C 9.390625 -19.164062 8.9375 -18.703125 8.625 -18.265625 C 8.28125 -17.773438 8.050781 -17.453125 7.9375 -17.296875 C 7.863281 -17.191406 7.800781 -17.171875 7.75 -17.234375 C 6.507812 -18.253906 5.703125 -19.175781 5.328125 -20 C 4.929688 -20.800781 4.863281 -21.523438 5.125 -22.171875 C 5.382812 -22.804688 5.90625 -23.351562 6.6875 -23.8125 C 7.445312 -24.21875 8.335938 -24.550781 9.359375 -24.8125 C 10.378906 -25.0625 11.472656 -25.207031 12.640625 -25.25 C 13.804688 -25.289062 14.929688 -25.238281 16.015625 -25.09375 C 18.992188 -24.707031 21.175781 -23.800781 22.5625 -22.375 C 23.914062 -20.90625 24.472656 -19.226562 24.234375 -17.34375 C 24.128906 -16.582031 23.863281 -15.878906 23.4375 -15.234375 C 22.988281 -14.566406 22.46875 -13.96875 21.875 -13.4375 C 21.257812 -12.894531 20.617188 -12.421875 19.953125 -12.015625 C 19.265625 -11.617188 18.640625 -11.28125 18.078125 -11 C 17.523438 -10.726562 17.0625 -10.523438 16.6875 -10.390625 Z M 11.71875 -0.4375 C 11.800781 0.269531 12.03125 0.691406 12.40625 0.828125 C 12.800781 0.960938 13.25 0.847656 13.75 0.484375 C 14.21875 0.140625 14.679688 -0.4375 15.140625 -1.25 C 15.566406 -2.039062 15.859375 -3.039062 16.015625 -4.25 C 16.128906 -5.132812 16.078125 -5.851562 15.859375 -6.40625 C 15.609375 -6.945312 15.285156 -7.378906 14.890625 -7.703125 C 14.460938 -8.023438 14.023438 -8.242188 13.578125 -8.359375 C 13.097656 -8.484375 12.6875 -8.554688 12.34375 -8.578125 C 12.09375 -7.546875 11.914062 -6.628906 11.8125 -5.828125 C 11.707031 -5.035156 11.644531 -4.316406 11.625 -3.671875 C 11.582031 -3.015625 11.585938 -2.429688 11.640625 -1.921875 C 11.671875 -1.398438 11.695312 -0.90625 11.71875 -0.4375 Z M 11.71875 -0.4375 "/></g></g></g><g fill="#ffffff" fill-opacity="1"><g transform="translate(52.985307, 57.295026)"><g><path d="M 13 -29 C 15.0625 -29 16.789062 -28.71875 18.1875 -28.15625 C 19.539062 -27.59375 20.617188 -26.851562 21.421875 -25.9375 C 22.210938 -24.988281 22.742188 -23.910156 23.015625 -22.703125 C 23.253906 -21.492188 23.269531 -20.238281 23.0625 -18.9375 C 22.820312 -17.632812 22.378906 -16.332031 21.734375 -15.03125 C 21.078125 -13.726562 20.25 -12.53125 19.25 -11.4375 C 18.238281 -10.3125 17.082031 -9.351562 15.78125 -8.5625 C 14.476562 -7.726562 13.0625 -7.132812 11.53125 -6.78125 C 11.46875 -5.363281 11.421875 -3.960938 11.390625 -2.578125 C 11.335938 -1.148438 11.3125 0.207031 11.3125 1.5 C 11.3125 1.65625 11.144531 1.757812 10.8125 1.8125 C 10.457031 1.90625 10.09375 1.953125 9.71875 1.953125 C 9.300781 1.984375 8.929688 1.96875 8.609375 1.90625 C 8.253906 1.84375 8.0625 1.738281 8.03125 1.59375 C 7.851562 0.625 7.6875 -0.5 7.53125 -1.78125 C 7.382812 -3.050781 7.253906 -4.347656 7.140625 -5.671875 C 6.992188 -6.972656 6.875 -8.273438 6.78125 -9.578125 C 6.664062 -10.878906 6.578125 -12.0625 6.515625 -13.125 C 6.429688 -14.1875 6.375 -15.085938 6.34375 -15.828125 C 6.28125 -16.535156 6.265625 -16.992188 6.296875 -17.203125 C 6.296875 -17.265625 6.3125 -17.3125 6.34375 -17.34375 C 7.113281 -17.925781 7.835938 -18.296875 8.515625 -18.453125 C 9.191406 -18.597656 9.8125 -18.640625 10.375 -18.578125 C 10.90625 -18.515625 11.363281 -18.394531 11.75 -18.21875 C 12.101562 -18.039062 12.335938 -17.910156 12.453125 -17.828125 C 12.484375 -17.796875 12.5 -17.75 12.5 -17.6875 C 12.445312 -17.363281 12.359375 -16.523438 12.234375 -15.171875 C 12.085938 -13.804688 11.941406 -12.164062 11.796875 -10.25 C 12.421875 -10.507812 13.113281 -10.878906 13.875 -11.359375 C 14.613281 -11.796875 15.328125 -12.367188 16.015625 -13.078125 C 16.660156 -13.753906 17.21875 -14.597656 17.6875 -15.609375 C 18.132812 -16.585938 18.359375 -17.769531 18.359375 -19.15625 C 18.359375 -20.101562 18.285156 -20.914062 18.140625 -21.59375 C 17.960938 -22.269531 17.664062 -22.832031 17.25 -23.28125 C 16.800781 -23.726562 16.195312 -24.066406 15.4375 -24.296875 C 14.664062 -24.503906 13.660156 -24.609375 12.421875 -24.609375 C 11.296875 -24.609375 10.347656 -24.398438 9.578125 -23.984375 C 8.773438 -23.578125 8.109375 -23.109375 7.578125 -22.578125 C 7.046875 -22.015625 6.648438 -21.476562 6.390625 -20.96875 C 6.085938 -20.4375 5.894531 -20.082031 5.8125 -19.90625 C 5.75 -19.789062 5.6875 -19.765625 5.625 -19.828125 C 4.207031 -20.679688 3.265625 -21.507812 2.796875 -22.3125 C 2.296875 -23.070312 2.132812 -23.796875 2.3125 -24.484375 C 2.488281 -25.160156 2.945312 -25.78125 3.6875 -26.34375 C 4.394531 -26.875 5.25 -27.347656 6.25 -27.765625 C 7.257812 -28.140625 8.351562 -28.429688 9.53125 -28.640625 C 10.71875 -28.847656 11.875 -28.96875 13 -29 Z M 13 -29 "/></g></g></g><g clip-path="url(#fd561cec9a)"><g clip-path="url(#288d3b962a)"><g clip-path="url(#875fadd5e8)"><path fill="#ffffff" d="M 39.3125 24.9375 C 38.847656 24.976562 38.527344 24.851562 38.191406 24.570312 L 31.480469 18.941406 C 30.808594 18.378906 30.726562 17.453125 31.289062 16.78125 L 36.917969 10.070312 C 37.480469 9.402344 38.40625 9.320312 39.074219 9.882812 C 39.746094 10.445312 39.828125 11.371094 39.265625 12.042969 L 34.625 17.578125 L 40.160156 22.21875 C 40.832031 22.785156 40.914062 23.707031 40.351562 24.378906 C 40.070312 24.714844 39.773438 24.898438 39.3125 24.9375 Z M 39.3125 24.9375 " fill-opacity="1" fill-rule="nonzero"/></g></g></g><g clip-path="url(#5f4c9dda3d)"><g clip-path="url(#fedf4528c1)"><g clip-path="url(#46d867d2bf)"><path fill="#ffffff" d="M 54.734375 23.582031 C 54.273438 23.621094 53.949219 23.496094 53.613281 23.214844 C 52.941406 22.652344 52.863281 21.726562 53.425781 21.054688 L 58.066406 15.519531 L 52.53125 10.875 C 51.859375 10.3125 51.777344 9.386719 52.339844 8.714844 C 52.902344 8.046875 53.828125 7.964844 54.5 8.527344 L 61.210938 14.152344 C 61.882812 14.714844 61.964844 15.640625 61.402344 16.3125 L 55.773438 23.023438 C 55.492188 23.359375 55.195312 23.542969 54.734375 23.582031 Z M 54.734375 23.582031 " fill-opacity="1" fill-rule="nonzero"/></g></g></g><g clip-path="url(#bfe9393a0f)"><g clip-path="url(#14e4d1ccd0)"><g clip-path="url(#87bcf59d7e)"><path fill="#ffffff" d="M 44.210938 27.617188 C 44.054688 27.628906 43.902344 27.644531 43.734375 27.503906 C 42.933594 27.261719 42.402344 26.53125 42.632812 25.578125 L 47.175781 6.527344 C 47.414062 5.730469 48.144531 5.199219 49.097656 5.425781 C 49.894531 5.667969 50.425781 6.398438 50.199219 7.351562 L 45.65625 26.402344 C 45.402344 27.042969 44.824219 27.5625 44.210938 27.617188 Z M 44.210938 27.617188 " fill-opacity="1" fill-rule="nonzero"/></g></g></g></svg>